<svg xmlns="http://www.w3.org/2000/svg" version="1.1" xmlns:xlink="http://www.w3.org/1999/xlink" xmlns:svgjs="http://svgjs.dev/svgjs" width="1000" height="1125" viewBox="0 0 1000 1125"><g transform="matrix(1,0,0,1,1.7053025658242404e-13,0)"><svg viewBox="0 0 320 360" data-background-color="#ffffff" preserveAspectRatio="xMidYMid meet" height="1125" width="1000" xmlns="http://www.w3.org/2000/svg" xmlns:xlink="http://www.w3.org/1999/xlink"><g id="tight-bounds" transform="matrix(1,0,0,1,0,0)"><svg viewBox="0 0 320 360" height="360" width="320"><g><svg></svg></g><g><svg viewBox="0 0 320 360" height="360" width="320"><g><path xmlns="http://www.w3.org/2000/svg" d="M320 204.145c-0.08-8.44-5.414-15.128-5.494-23.568-0.04-8.44 5.215-18.631 5.136-27.071-2.667-8.002-9.833-12.7-12.501-20.702-2.667-8.002-0.836-19.348-3.463-27.35-5.016-6.808-13.297-9.037-18.274-15.805-5.016-6.808-6.768-18.154-11.744-24.921-6.847-4.897-15.407-4.499-22.294-9.396-6.847-4.897-12.023-15.168-18.91-20.065-8.042-2.548-16.044 0.518-24.086-2.07-8.042-2.548-16.123-10.709-24.165-13.257-8.44 0.08-15.128 5.414-23.568 5.494-8.44 0.04-18.631-5.215-27.071-5.135-8.002 2.667-12.7 9.833-20.702 12.5-8.002 2.667-19.348 0.836-27.35 3.504-6.808 5.016-9.037 13.297-15.805 18.273-6.808 5.016-18.154 6.768-24.922 11.784-4.897 6.847-4.499 15.407-9.395 22.294-4.897 6.847-15.168 12.023-20.065 18.91-2.548 8.042 0.478 16.044-2.07 24.086-2.548 8.042-10.709 16.123-13.257 24.165 0.04 8.44 5.414 15.128 5.494 23.568 0.04 8.44-5.215 18.631-5.136 27.071 2.667 8.002 9.833 12.7 12.501 20.702 2.667 8.002 0.836 19.348 3.503 27.35 5.016 6.808 13.297 9.037 18.273 15.845 5.016 6.808 6.768 18.154 11.745 24.921 6.847 4.897 15.407 4.499 22.294 9.396 6.847 4.897 12.023 15.168 18.91 20.065 8.042 2.548 16.044-0.478 24.086 2.07 8.042 2.548 16.123 10.709 24.165 13.257 8.44-0.08 15.128-5.414 23.568-5.494 8.44-0.04 18.631 5.215 27.071 5.135 8.002-2.667 12.7-9.833 20.702-12.5 8.002-2.667 19.348-0.836 27.35-3.504 6.808-5.016 9.037-13.297 15.845-18.273 6.808-5.016 18.154-6.768 24.921-11.744 4.897-6.847 4.499-15.407 9.396-22.294 4.897-6.847 15.168-12.023 20.064-18.91 2.548-8.042-0.478-16.044 2.071-24.086 2.468-8.121 10.63-16.203 13.177-24.245zM305.987 227.395c-3.623 7.126-12.501 13.456-16.164 20.582-3.623 7.126-2.03 15.088-5.653 22.215-5.653 5.653-16.044 8.918-21.737 14.57-5.653 5.653-6.569 13.735-12.261 19.388-7.126 3.623-18.034 3.503-25.161 7.166-7.126 3.623-10.51 11.028-17.636 14.651-7.922 1.234-18.233-2.229-26.156-0.996-7.922 1.234-13.416 7.246-21.299 8.48-7.922-1.234-16.641-7.763-24.563-8.997-7.922-1.274-14.969 2.747-22.891 1.473-7.126-3.623-13.456-12.54-20.582-16.163-7.126-3.623-15.088-2.03-22.255-5.654-5.653-5.653-8.918-16.044-14.571-21.736-5.653-5.653-13.735-6.609-19.387-12.262-3.623-7.126-3.503-18.034-7.166-25.161-3.623-7.126-11.028-10.51-14.651-17.636-1.234-7.922 2.229-18.233 0.995-26.156-1.274-7.922-7.246-13.416-8.479-21.298 1.274-7.922 7.763-16.641 8.997-24.564 1.234-7.922-2.747-14.969-1.473-22.891 3.623-7.126 12.54-13.456 16.163-20.582 3.623-7.126 2.03-15.088 5.653-22.254 5.653-5.653 16.044-8.918 21.737-14.571 5.653-5.653 6.609-13.735 12.262-19.388 7.126-3.623 18.034-3.503 25.16-7.166 7.126-3.623 10.51-11.028 17.637-14.651 7.922-1.234 18.233 2.229 26.155 0.996 7.922-1.234 13.416-7.246 21.299-8.48 7.922 1.234 16.641 7.763 24.564 8.997 7.922 1.274 14.969-2.747 22.891-1.473 7.126 3.623 13.456 12.54 20.582 16.163 7.126 3.623 15.088 2.03 22.254 5.654 5.653 5.653 8.918 16.044 14.571 21.736 5.653 5.653 13.735 6.609 19.388 12.262 3.623 7.126 3.503 18.034 7.166 25.161 3.623 7.126 11.028 10.51 14.65 17.636 1.274 7.922-2.229 18.233-0.995 26.156 1.234 7.922 7.246 13.416 8.48 21.298-1.234 7.922-7.763 16.641-8.997 24.564-1.234 7.922 2.747 15.009 1.473 22.931z" fill="#848acb" fill-rule="nonzero" stroke="none" stroke-width="1" stroke-linecap="butt" stroke-linejoin="miter" stroke-miterlimit="10" stroke-dasharray="" stroke-dashoffset="0" font-family="none" font-weight="none" font-size="none" text-anchor="none" style="mix-blend-mode: normal" data-fill-palette-color="tertiary"></path></g><g transform="matrix(1,0,0,1,54.58666170641439,80.99999999999999)"><svg viewBox="0 0 210.82667658717122 198.00000000000003" height="198.00000000000003" width="210.82667658717122"><g><svg viewBox="0 0 224 210.37185956712472" height="198.00000000000003" width="210.82667658717122"><g transform="matrix(1,0,0,1,0,108.73327370493698)"><svg viewBox="0 0 224 101.63858586218774" height="101.63858586218774" width="224"><g id="textblocktransform"><svg viewBox="0 0 224 101.63858586218774" height="101.63858586218774" width="224" id="textblock"><g><svg viewBox="0 0 224 101.63858586218774" height="101.63858586218774" width="224"><g transform="matrix(1,0,0,1,0,0)"><svg width="224" viewBox="0.8279480934143066 -20.068803787231445 101.91734313964844 46.244361877441406" height="101.63858586218774" data-palette-color="#848acb"><path d="M3.487 17.251v0c-0.422-0.199-0.896-0.539-1.42-1.022-0.528-0.491-0.903-1.103-1.126-1.834-0.229-0.734-0.11-1.599 0.359-2.594v0c0.412-0.875 1.141-1.931 2.187-3.17 1.041-1.242 2.262-2.608 3.665-4.1 1.405-1.498 2.852-3.086 4.341-4.765 1.487-1.673 2.882-3.4 4.184-5.182 1.296-1.785 2.37-3.582 3.222-5.391v0c0.525-1.116 0.978-2.174 1.36-3.173 0.376-1.002 0.516-1.887 0.42-2.654-0.105-0.764-0.61-1.359-1.514-1.784v0c-0.845-0.397-1.677-0.483-2.498-0.258-0.824 0.217-1.607 0.629-2.35 1.237-0.749 0.605-1.411 1.307-1.985 2.105-0.58 0.795-1.048 1.57-1.403 2.324v0c-0.227 0.483-0.396 0.944-0.508 1.385-0.121 0.444-0.199 0.861-0.235 1.249v0c-1.176-0.553-1.852-1.269-2.028-2.148-0.179-0.873-0.063-1.746 0.349-2.62v0c0.44-0.935 1.1-1.766 1.98-2.495 0.874-0.731 1.886-1.315 3.036-1.754 1.141-0.436 2.322-0.661 3.545-0.675 1.222-0.014 2.392 0.241 3.507 0.766v0c1.87 0.88 2.923 2.267 3.159 4.161 0.227 1.897-0.234 4.067-1.383 6.51v0c-0.823 1.749-1.881 3.488-3.172 5.216-1.295 1.734-2.676 3.416-4.143 5.047-1.467 1.631-2.905 3.183-4.313 4.657-1.414 1.471-2.665 2.854-3.752 4.147-1.087 1.293-1.872 2.453-2.355 3.478v0c-0.241 0.513-0.355 0.975-0.343 1.386 0.007 0.408 0.267 0.733 0.779 0.974v0c0.845 0.397 2.026 0.43 3.545 0.099 1.522-0.338 3.229-0.975 5.122-1.912 1.895-0.928 3.85-2.06 5.864-3.396 2.008-1.339 3.944-2.816 5.808-4.429 1.861-1.607 3.525-3.263 4.99-4.968 1.465-1.705 2.588-3.387 3.369-5.046v0c0.71-1.508 1.006-2.724 0.888-3.649-0.12-0.919-0.508-1.661-1.163-2.227v0c0.763-0.525 1.458-0.843 2.084-0.954 0.621-0.113 1.127-0.078 1.519 0.107v0c0.633 0.298 1.06 0.996 1.28 2.095 0.22 1.098-0.074 2.507-0.883 4.226v0c-0.781 1.659-1.975 3.399-3.584 5.221-1.615 1.819-3.485 3.617-5.61 5.394-2.128 1.784-4.375 3.427-6.74 4.93-2.365 1.503-4.691 2.766-6.978 3.79-2.287 1.024-4.395 1.708-6.325 2.052-1.93 0.344-3.514 0.226-4.751-0.356zM30.24 24.861v0c-1.28-0.227-2.161-0.797-2.642-1.709-0.48-0.918-0.618-1.952-0.414-3.1v0c0.134-0.755 0.444-1.682 0.93-2.78 0.48-1.1 1.061-2.239 1.745-3.417 0.685-1.185 1.431-2.281 2.24-3.289 0.802-1.009 1.611-1.806 2.426-2.393 0.814-0.58 1.549-0.812 2.205-0.695v0c0.295 0.052 0.536 0.187 0.721 0.402 0.177 0.221 0.234 0.512 0.17 0.874v0c-0.07 0.394-0.436 0.989-1.099 1.785-0.669 0.795-1.451 1.706-2.344 2.732-0.893 1.026-1.705 2.125-2.434 3.295-0.737 1.176-1.208 2.338-1.412 3.487v0c-0.21 1.181-0.153 2.004 0.171 2.468 0.324 0.464 0.896 0.769 1.717 0.914v0c1.116 0.198 2.406-0.148 3.871-1.039 1.459-0.892 3.141-2.607 5.048-5.146v0l0.356 0.571c-1.453 2.653-3.207 4.576-5.26 5.769-2.06 1.191-4.058 1.615-5.995 1.271zM40.153 3.363v0c-0.525-0.093-0.968-0.307-1.328-0.642-0.367-0.336-0.501-0.783-0.402-1.341v0c0.122-0.689 0.633-1.218 1.531-1.586 0.891-0.363 1.73-0.475 2.518-0.335v0c0.492 0.087 0.866 0.272 1.12 0.554 0.255 0.282 0.332 0.702 0.233 1.26v0c-0.111 0.624-0.552 1.161-1.322 1.614-0.779 0.458-1.562 0.616-2.35 0.476zM58.548 25.626v0c-1.165 0.06-2.053-0.195-2.663-0.764-0.617-0.569-0.949-1.32-0.997-2.252v0c-0.036-0.699 0.053-1.438 0.266-2.216 0.207-0.778 0.406-1.583 0.597-2.414 0.191-0.824 0.267-1.619 0.227-2.385v0c-0.048-0.932-0.271-1.565-0.668-1.898-0.404-0.326-0.889-0.475-1.455-0.446v0c-1.032 0.053-2.059 0.53-3.081 1.431-1.021 0.907-1.997 2.042-2.928 3.405-0.931 1.37-1.793 2.776-2.586 4.219-0.793 1.443-1.495 2.731-2.104 3.863v0c-0.533 0.027-1.047-0.036-1.542-0.19-0.489-0.162-0.876-0.419-1.161-0.772v0c-0.009-0.166 0.138-0.691 0.439-1.574 0.308-0.884 0.663-1.97 1.064-3.26 0.401-1.289 0.75-2.609 1.047-3.959 0.298-1.35 0.418-2.575 0.362-3.673v0c0.188-0.243 0.492-0.493 0.912-0.748 0.421-0.255 0.864-0.395 1.33-0.419v0c0.899-0.046 1.371 0.363 1.416 1.228v0c0.027 0.533-0.076 1.429-0.312 2.69-0.235 1.267-0.55 2.595-0.946 3.984v0c0.828-1.411 1.767-2.821 2.816-4.231 1.042-1.402 2.173-2.585 3.391-3.549 1.219-0.964 2.46-1.479 3.726-1.544v0c1.298-0.067 2.264 0.351 2.898 1.253 0.627 0.902 0.97 1.919 1.029 3.051v0c0.053 1.032-0.064 1.996-0.352 2.892-0.287 0.903-0.583 1.772-0.887 2.609-0.311 0.83-0.445 1.662-0.402 2.494v0c0.036 0.699 0.204 1.181 0.505 1.446 0.294 0.272 0.658 0.397 1.091 0.374v0c0.832-0.043 1.644-0.479 2.436-1.307 0.792-0.822 1.55-1.852 2.274-3.091 0.717-1.239 1.344-2.489 1.879-3.752v0l0.583 0.621c-0.615 1.667-1.323 3.156-2.123 4.465-0.8 1.31-1.698 2.357-2.692 3.143-0.994 0.786-2.124 1.211-3.389 1.276zM73.097 24.575v0c-1.371 0.419-2.472 0.296-3.303-0.37-0.833-0.672-1.435-1.614-1.806-2.825v0c-0.302-0.988-0.455-2.057-0.458-3.206-0.003-1.149 0.119-2.267 0.365-3.354 0.24-1.084 0.6-2.014 1.081-2.788 0.475-0.773 1.047-1.261 1.717-1.466v0c0.159-0.049 0.335-0.078 0.527-0.088 0.188-0.002 0.371 0.005 0.55 0.02v0c-0.209 0.343-0.407 0.916-0.593 1.718-0.191 0.811-0.328 1.707-0.412 2.688-0.081 0.987-0.108 1.947-0.081 2.88 0.021 0.935 0.124 1.705 0.31 2.311v0c0.293 0.956 0.664 1.599 1.113 1.928 0.451 0.336 0.932 0.426 1.442 0.27v0c0.669-0.205 1.356-0.809 2.06-1.812 0.706-0.997 1.334-2.19 1.885-3.578v0c-1.117-0.46-2.104-1.214-2.961-2.263-0.862-1.04-1.483-2.182-1.864-3.424v0c-0.322-1.052-0.439-2.097-0.352-3.134 0.081-1.036 0.386-1.941 0.915-2.717 0.532-0.769 1.291-1.305 2.28-1.607v0c1.307-0.4 2.291-0.317 2.951 0.247 0.661 0.565 1.152 1.373 1.474 2.425v0c0.38 1.243 0.499 2.713 0.356 4.409-0.141 1.703-0.46 3.396-0.955 5.082v0c0.671 0.143 1.326 0.117 1.963-0.078v0c0.51-0.156 1.053-0.434 1.627-0.833 0.573-0.405 1.094-0.959 1.563-1.66 0.462-0.699 0.753-1.538 0.872-2.515v0l0.72 0.303c-0.179 1.693-0.754 3.026-1.725 4-0.975 0.982-1.989 1.633-3.041 1.955v0c-0.414 0.127-0.825 0.207-1.233 0.241-0.406 0.041-0.809 0.035-1.208-0.017v0c-0.645 1.766-1.465 3.324-2.46 4.674-1.002 1.352-2.108 2.214-3.319 2.584zM77.975 15.397v0c0.436-1.423 0.721-2.863 0.853-4.319 0.129-1.448 0.018-2.745-0.333-3.893v0c-0.283-0.924-0.624-1.562-1.025-1.914-0.405-0.343-0.814-0.451-1.229-0.325v0c-0.637 0.195-1.15 0.857-1.536 1.987-0.387 1.129-0.365 2.395 0.064 3.797v0c0.283 0.924 0.706 1.816 1.269 2.676 0.554 0.855 1.2 1.519 1.937 1.991zM95.911 17.145v0c-1.361 0.776-2.607 1.094-3.737 0.956-1.139-0.141-2.125-0.55-2.955-1.227-0.825-0.681-1.486-1.455-1.981-2.324v0c-0.495-0.869-0.759-1.601-0.792-2.197-0.032-0.595 0.053-1.105 0.258-1.528 0.198-0.42 0.418-0.775 0.658-1.066 0.235-0.288 0.378-0.522 0.427-0.704v0c0.324-1.451 0.551-2.904 0.681-4.359 0.13-1.455 0.14-2.919 0.03-4.391v0l-0.297-0.521c-0.611-1.071-0.862-1.937-0.755-2.597 0.105-0.651 0.36-1.092 0.765-1.322v0c0.232-0.132 0.438-0.173 0.62-0.124 0.182 0.05 0.314 0.147 0.397 0.292v0c0.083 0.145 0.171 0.401 0.266 0.77 0.095 0.368 0.282 0.798 0.563 1.29v0c0.545 0.956 1.322 1.882 2.332 2.78 1.014 0.903 2.059 1.862 3.135 2.875 1.08 1.019 1.999 2.195 2.759 3.526v0c0.215 0.376 0.404 0.756 0.568 1.138 0.162 0.391 0.29 0.771 0.384 1.14v0c0.915-0.751 1.609-1.754 2.085-3.007 0.478-1.247 0.675-2.921 0.591-5.022v0l0.638 0.212c0.358 1.906 0.221 3.584-0.411 5.034-0.628 1.455-1.536 2.656-2.724 3.601v0c0.246 1.509 0.037 2.838-0.629 3.985-0.672 1.15-1.63 2.08-2.876 2.79zM95.131 15.575v0c0.348-0.198 0.745-0.578 1.192-1.14 0.447-0.562 0.558-1.411 0.332-2.548v0c-1.348 0.462-2.698 0.598-4.049 0.408-1.357-0.186-2.473-0.509-3.349-0.968v0c-0.621 0.392-0.65 1.08-0.089 2.065v0c0.594 1.043 1.455 1.826 2.582 2.349 1.125 0.533 2.252 0.477 3.381-0.166zM96.476 11.068v0c-0.107-0.323-0.237-0.651-0.39-0.987-0.153-0.335-0.353-0.72-0.6-1.154v0c-0.776-1.361-1.712-2.619-2.808-3.775-1.105-1.158-2.112-2.265-3.02-3.32v0c-0.039 1.48-0.142 2.928-0.31 4.344-0.17 1.425-0.399 2.66-0.685 3.705v0c0.963 0.679 2.133 1.163 3.51 1.453 1.372 0.293 2.806 0.204 4.303-0.266z" opacity="1" transform="matrix(1,0,0,1,0,0)" fill="#848acb" class="undefined-text-0" data-fill-palette-color="primary" id="text-0"></path></svg></g></svg></g></svg></g></svg></g><g transform="matrix(1,0,0,1,87.05789368713532,0)"><svg viewBox="0 0 49.88421262572937 101.63858586218772" height="101.63858586218772" width="49.88421262572937"><g><svg xmlns="http://www.w3.org/2000/svg" xmlns:xlink="http://www.w3.org/1999/xlink" version="1.1" x="0" y="0" viewBox="3.4615602493286133 2.877000093460083 99.20932006835938 202.13800048828125" enable-background="new 0 0 102.67 205.013" xml:space="preserve" width="49.88421262572937" height="101.63858586218772" class="icon-icon-0" data-fill-palette-color="accent" id="icon-0"><g fill="#0718c4" data-fill-palette-color="accent"><path d="M102.654 51.58c-0.457-23.712-9.016-48.703-9.016-48.703h-3.01c0 0 7.827 23.894 8.245 46.568 0.418 22.673-7.677 32.673-20.061 39.81-12.384 7.136-31.556 10.706-47.857 0C14.655 78.549 8.761 68.92 8.176 52.332 7.593 35.745 18.212 2.877 18.212 2.877h-3.753c0 0-11.611 34.375-10.972 51.724 0.568 15.446 5.748 25.124 19.456 34.963 1.653 1.187 3.424 2.375 5.332 3.578l-0.002 0.013c0.041 0.02 0.079 0.042 0.12 0.062 0 0 0 0 0 0.001 1.315 0.826 2.65 1.562 3.996 2.23 8.501 5.316 13.523 12.356 16.257 17.391 1.286 2.685 2.176 5.569 2.479 8.638 2.876 29.138 2.139 59.617-5.435 69.639-3.273 4.33-8.039 6.977-12.998 8.568-8.475 0.545-13.937 1.395-13.942 2.354h0l0 0 0 0c0 1.643 16.082 2.977 35.919 2.977 18.798 0 34.214-1.197 35.78-2.721 0.454-0.082 0.698-0.17 0.698-0.256 0-0.088-0.245-0.174-0.699-0.256-0.866-0.838-5.918-1.578-13.419-2.072-4.899-1.498-9.596-3.971-12.832-8.252-7.574-10.021-7.204-40.754-5.426-69.98 0.308-5.057 2.092-9.517 4.605-13.375 3.258-4.624 8.145-9.822 15.233-13.788 0.72-0.356 1.426-0.72 2.108-1.096 1.803-0.995 3.52-2.043 5.146-3.168 0.006-0.002 0.015-0.006 0.015-0.006l-0.009 0.002C96.451 82.726 103.05 72.132 102.654 51.58z" fill="#0718c4" data-fill-palette-color="accent"></path><path d="M92.13 56.629c-8.44 0-16.415-1.938-23.595-5.268-31.586-14.653-56.286-3.337-56.697-3.346-0.137 0.842-0.212 1.695-0.212 2.559 0 12.754 7.272 39.716 41.44 39.716 34.663 0 41.337-19.118 42.568-33.784C94.474 56.58 93.308 56.629 92.13 56.629z" fill="#0718c4" data-fill-palette-color="accent"></path></g></svg></g></svg></g><g></g></svg></g></svg></g></svg></g><defs></defs></svg><rect width="320" height="360" fill="none" stroke="none" visibility="hidden"></rect></g></svg></g></svg>